<svg xmlns="http://www.w3.org/2000/svg" width="980" height="430" viewBox="0 0 980 430" font-family="Helvetica,Arial,sans-serif">
<rect width="980" height="430" fill="#ffffff"/>
<rect x="62.0" y="42" width="431.0" height="344" fill="#fbfaf7" stroke="#c9c2b4"/>
<line x1="62.0" y1="386.0" x2="493.0" y2="386.0" stroke="#e3ded2"/>
<text x="54.0" y="390.0" font-size="11" text-anchor="end" fill="#6b6459">0.0</text>
<line x1="62.0" y1="293.0" x2="493.0" y2="293.0" stroke="#e3ded2"/>
<text x="54.0" y="297.0" font-size="11" text-anchor="end" fill="#6b6459">0.5</text>
<line x1="62.0" y1="200.1" x2="493.0" y2="200.1" stroke="#e3ded2"/>
<text x="54.0" y="204.1" font-size="11" text-anchor="end" fill="#6b6459">1.0</text>
<line x1="62.0" y1="107.1" x2="493.0" y2="107.1" stroke="#e3ded2"/>
<text x="54.0" y="111.1" font-size="11" text-anchor="end" fill="#6b6459">1.5</text>
<line x1="62.0" y1="42" x2="62.0" y2="386" stroke="#efeae0"/>
<text x="62.0" y="402.0" font-size="11" text-anchor="middle" fill="#6b6459">0.00</text>
<line x1="169.8" y1="42" x2="169.8" y2="386" stroke="#efeae0"/>
<text x="169.8" y="402.0" font-size="11" text-anchor="middle" fill="#6b6459">0.20</text>
<line x1="277.5" y1="42" x2="277.5" y2="386" stroke="#efeae0"/>
<text x="277.5" y="402.0" font-size="11" text-anchor="middle" fill="#6b6459">0.41</text>
<line x1="385.2" y1="42" x2="385.2" y2="386" stroke="#efeae0"/>
<text x="385.2" y="402.0" font-size="11" text-anchor="middle" fill="#6b6459">0.61</text>
<line x1="493.0" y1="42" x2="493.0" y2="386" stroke="#efeae0"/>
<text x="493.0" y="402.0" font-size="11" text-anchor="middle" fill="#6b6459">0.82</text>
<polyline points="70.8,71.5 79.6,71.6 88.4,71.9 97.2,72.4 106.0,73.4 114.8,74.9 123.6,76.9 132.3,79.5 141.2,82.7 150.0,86.3 158.7,90.1 167.5,93.9 176.4,97.3 185.1,100.6 193.9,104.1 202.7,107.5 211.5,110.9 220.3,114.4 229.1,117.8 237.9,121.2 246.7,124.4 255.5,127.7 264.3,130.9 273.1,133.9 281.9,136.9 290.7,139.7 299.5,142.4 308.3,144.8 317.1,147.1 325.9,149.1 334.7,150.9 343.4,152.4 352.3,153.7 361.1,154.5 369.8,155.1 378.6,155.3 387.5,155.3 396.2,155.3 405.0,155.3 413.8,155.3 422.6,155.3 431.4,155.3 440.2,155.3 449.0,155.3 457.8,155.3 466.6,155.3 475.4,155.3 484.2,155.3 493.0,155.3" fill="none" stroke="#a3402c" stroke-width="2.2"/>
<polyline points="70.8,210.0 79.6,210.2 88.4,210.4 97.2,211.0 106.0,212.0 114.8,213.5 123.6,215.5 132.3,218.2 141.2,221.3 150.0,225.0 158.7,228.8 167.5,232.5 176.4,235.9 185.1,239.2 193.9,242.5 202.7,245.9 211.5,249.3 220.3,252.7 229.1,256.0 237.9,259.2 246.7,262.4 255.5,265.6 264.3,268.6 273.1,271.6 281.9,274.4 290.7,277.1 299.5,279.6 308.3,282.0 317.1,284.1 325.9,286.0 334.7,287.7 343.4,289.1 352.3,290.3 361.1,291.1 369.8,291.6 378.6,291.8 387.5,291.8 396.2,291.8 405.0,291.8 413.8,291.8 422.6,291.8 431.4,291.8 440.2,291.8 449.0,291.8 457.8,291.8 466.6,291.8 475.4,291.8 484.2,291.8 493.0,291.8" fill="none" stroke="#2f5d7c" stroke-width="2.2"/>
<line x1="378.6" y1="42" x2="378.6" y2="386" stroke="#8a8375" stroke-dasharray="4 3"/>
<text x="375.6" y="56.0" font-size="11" fill="#8a8375" text-anchor="end">переход кончился, 0.60 с</text>
<text x="62.0" y="30" font-size="13" font-weight="600" fill="#2b2620">СЕСТЬ на лавку (x129z106, настил 0.45 м)</text>
<rect x="533.0" y="42" width="431.0" height="344" fill="#fbfaf7" stroke="#c9c2b4"/>
<line x1="533.0" y1="386.0" x2="964.0" y2="386.0" stroke="#e3ded2"/>
<text x="525.0" y="390.0" font-size="11" text-anchor="end" fill="#6b6459">0.0</text>
<line x1="533.0" y1="293.0" x2="964.0" y2="293.0" stroke="#e3ded2"/>
<text x="525.0" y="297.0" font-size="11" text-anchor="end" fill="#6b6459">0.5</text>
<line x1="533.0" y1="200.1" x2="964.0" y2="200.1" stroke="#e3ded2"/>
<text x="525.0" y="204.1" font-size="11" text-anchor="end" fill="#6b6459">1.0</text>
<line x1="533.0" y1="107.1" x2="964.0" y2="107.1" stroke="#e3ded2"/>
<text x="525.0" y="111.1" font-size="11" text-anchor="end" fill="#6b6459">1.5</text>
<line x1="533.0" y1="42" x2="533.0" y2="386" stroke="#efeae0"/>
<text x="533.0" y="402.0" font-size="11" text-anchor="middle" fill="#6b6459">0.00</text>
<line x1="640.8" y1="42" x2="640.8" y2="386" stroke="#efeae0"/>
<text x="640.8" y="402.0" font-size="11" text-anchor="middle" fill="#6b6459">0.29</text>
<line x1="748.5" y1="42" x2="748.5" y2="386" stroke="#efeae0"/>
<text x="748.5" y="402.0" font-size="11" text-anchor="middle" fill="#6b6459">0.57</text>
<line x1="856.2" y1="42" x2="856.2" y2="386" stroke="#efeae0"/>
<text x="856.2" y="402.0" font-size="11" text-anchor="middle" fill="#6b6459">0.86</text>
<line x1="964.0" y1="42" x2="964.0" y2="386" stroke="#efeae0"/>
<text x="964.0" y="402.0" font-size="11" text-anchor="middle" fill="#6b6459">1.15</text>
<polyline points="539.3,68.8 545.5,68.9 551.7,68.9 558.0,69.1 564.2,69.4 570.5,69.9 576.7,70.5 583.0,71.4 589.2,72.6 595.5,74.1 601.7,75.9 608.0,78.0 614.2,80.4 620.4,83.0 626.7,85.8 633.0,88.7 639.2,91.5 645.4,94.2 651.7,96.7 657.9,98.9 664.2,101.0 670.4,103.0 676.7,104.9 682.9,106.8 689.2,108.8 695.4,110.8 701.7,113.0 707.9,115.5 714.1,118.2 720.4,121.4 726.7,124.9 732.9,128.8 739.1,133.2 745.4,138.2 751.6,143.5 757.9,149.3 764.1,155.5 770.3,162.0 776.6,168.8 782.9,175.7 789.1,182.7 795.3,189.8 801.6,196.9 807.8,204.0 814.1,210.8 820.3,217.4 826.6,223.5 832.8,229.2 839.1,234.1 845.3,238.4 851.6,241.8 857.8,244.3 864.0,245.9 870.3,246.5 876.6,246.5 882.8,246.5 889.0,246.5 895.3,246.5 901.5,246.5 907.8,246.5 914.0,246.5 920.3,246.5 926.5,246.5 932.8,246.5 939.0,246.5 945.3,246.5 951.5,246.5 957.7,246.5 964.0,246.5" fill="none" stroke="#a3402c" stroke-width="2.2"/>
<polyline points="539.3,207.5 545.5,207.5 551.7,207.5 558.0,207.7 564.2,208.0 570.5,208.5 576.7,209.1 583.0,210.1 589.2,211.3 595.5,212.8 601.7,214.6 608.0,216.7 614.2,219.1 620.4,221.7 626.7,224.5 633.0,227.3 639.2,230.2 645.4,232.9 651.7,235.3 657.9,237.5 664.2,239.8 670.4,242.1 676.7,244.3 682.9,246.5 689.2,248.7 695.4,250.8 701.7,252.9 707.9,254.9 714.1,256.8 720.4,258.6 726.7,260.3 732.9,261.8 739.1,263.3 745.4,264.6 751.6,265.7 757.9,266.7 764.1,267.5 770.3,268.1 776.6,268.6 782.9,268.8 789.1,268.8 795.3,268.8 801.6,268.8 807.8,268.8 814.1,268.8 820.3,268.8 826.6,268.8 832.8,268.8 839.1,268.8 845.3,268.8 851.6,268.8 857.8,268.8 864.0,268.8 870.3,268.8 876.6,268.8 882.8,268.8 889.0,268.8 895.3,268.8 901.5,268.8 907.8,268.8 914.0,268.8 920.3,268.8 926.5,268.8 932.8,268.8 939.0,268.8 945.3,268.8 951.5,268.8 957.7,268.8 964.0,268.8" fill="none" stroke="#2f5d7c" stroke-width="2.2"/>
<line x1="870.3" y1="42" x2="870.3" y2="386" stroke="#8a8375" stroke-dasharray="4 3"/>
<text x="867.3" y="56.0" font-size="11" fill="#8a8375" text-anchor="end">переход кончился, 0.90 с</text>
<text x="533.0" y="30" font-size="13" font-weight="600" fill="#2b2620">ЛЕЧЬ на кровать (x90z90, настил 0.509 м)</text>
<text x="62" y="418" font-size="12" fill="#6b6459">секунды от нажатия E &#183; высота над полом комнаты, м &#183; <tspan fill="#2f5d7c">таз</tspan> и <tspan fill="#a3402c">глаз</tspan> &#183; замер DFN_POSTURE_TRACE, тик 1/60 с</text>
</svg>